<svg width="3506" height="885" viewBox="0 0 3506 885" fill="none" xmlns="http://www.w3.org/2000/svg">
<g clip-path="url(#clip0_13_83)">
<path d="M516.14 189.99L732.09 222.54C752.96 228.01 758.94 251.4 745.84 267.74L606.27 408.71L609 426.13C625.8 431.01 656.009 427.77 652.599 453.51C651.999 458.03 644.62 476.11 644.99 477.66C664.42 487.44 647.769 506.22 645.859 521.26L696.419 529.85C701.759 524.31 704.399 522.82 712.349 523.28C727.859 524.17 754.29 529.97 761.37 545.26C765.13 553.38 764.86 551.31 769.84 557.79C788.41 581.99 786.319 620.07 786.909 649.72C787.759 692.88 791.07 767.21 726.5 761.13C686.86 757.4 678.88 720.34 664.37 690.28C642.06 702.54 618.549 694.33 602.359 676.27C601.349 675.15 598.31 668.82 596.88 670.26L560.349 783.24C553.799 798.48 541.63 806.34 524.83 801.79L341.88 758.25C339.11 765.11 338.5 782.28 328.46 781.25C322.79 780.67 310.82 763.82 305.15 760.4C282.49 765.18 257.83 781.12 272.88 742.27C262.1 739.71 252.92 730.68 249.4 720.23C243.15 701.63 251.289 685.32 257.859 668.26C172.699 728.96 55.2195 696.75 13.6995 600.93C-30.3905 499.19 36.8095 383.24 146.87 373.25L41.0395 266.59C29.6295 252.15 34.5495 230.56 51.8795 223.78C124.3 210.37 197.88 202.07 270.63 190.04L367.04 14.9399C378.34 -3.95014 406.239 -5.50014 418.079 13.5399L516.13 189.99H516.14ZM589.859 422.26C589.299 413.47 583.69 404.18 590.89 396.79L731.919 254.82C734.729 248.44 732.47 240.77 725.13 239.5L515.62 209.01C507.8 206.67 503.04 203.81 498.7 196.93C489.74 182.72 482.27 165.46 474.04 150.59C450.11 107.34 425.89 64.1199 401.38 21.2499C393.61 15.6499 387.37 17.8499 382.45 25.3499C375.17 36.4499 368.7 51.9299 362.04 63.9399C336.37 110.17 310.44 156.33 284.4 202.3C278.39 208.33 270.15 208.69 262.2 210.1C195.02 221.98 126.85 228.85 59.6095 240.51C52.7395 243.32 52.0895 250.55 56.3395 256.28C66.5195 270.01 89.8495 289.62 102.89 302.73C125.93 325.9 149.22 349.08 172.31 372.31C201.71 375.46 229.32 385.19 253.59 402.03C285.08 423.89 307.4 457.14 316.88 494.24L348.69 403.57C351.69 398.74 354.89 393.85 359.39 390.27C375.61 377.35 388.75 382.4 407.049 385.56C468.299 396.13 528.769 410.94 589.859 422.24V422.26ZM392.859 400.27C379.249 397.15 368.69 400.66 362.67 413.57L274.87 667.26C284 663.46 291.75 666.46 300.81 668.23L392.87 400.27H392.859ZM143.67 400.47C136.58 400.66 121.4 405.63 114.34 408.24C69.2295 424.94 34.6195 469.11 29.0295 516.92C28.6295 520.36 26.2895 529.35 33.1995 527.15C35.9195 526.28 37.3895 510.31 38.3495 506.24C48.9795 461.14 81.5195 425.35 126.1 411.99C129.68 410.92 146.49 407.76 147.4 406.27C149.14 403.4 146.99 400.37 143.68 400.46L143.67 400.47ZM566.859 504.25L614.9 513.86L634.46 453.24L632.84 449.77L399.93 402.33L306.85 670.25L391.85 689.25C373.85 670.06 379.359 644.27 386.829 621.74C397.339 590.02 414.9 558.41 431.84 529.75C425.21 525.63 407.9 528.87 407.75 518.77L428.829 451.73C431.089 446.49 431.45 443.9 438.2 444.33L571.56 472.04C572.84 472.66 574.22 473.51 574.65 474.94C576.62 481.43 568.399 497.13 566.849 504.23L566.859 504.25ZM148.62 434.03C151.26 431.48 149.53 427.5 145.55 427.55C142.85 427.58 132.15 430.75 128.87 431.77C91.4695 443.43 62.1595 478.39 56.1595 517.06C55.2295 523.07 53.0495 533.56 62.3695 527.27C65.4095 487.92 91.9295 452.11 129.33 439.23C132.51 438.13 147.75 434.87 148.62 434.03ZM544.12 499C544.9 499.86 556.96 502.51 557.9 501.85L564.69 481.54L563.2 479.44L438.52 454.19L417.87 517.25L436.14 520.1C441.3 515.45 444.7 509.47 449.85 504.75C464.39 491.44 483.48 484.66 503.24 486.39C508.01 486.81 540.6 493.37 542.44 495.21C543.71 496.48 543.55 498.36 544.12 499ZM85.0795 530.01C92.1395 536.71 92.9795 519.13 94.1395 515.05C100.15 494.04 115.56 476.82 135.88 468.79C139.28 467.45 151.9 465.49 151.89 461.77C151.88 453.8 131.78 462.42 128.19 464.1C105.34 474.78 88.9795 497.13 85.1795 522.09C84.8795 524.07 83.6395 528.65 85.0795 530.02V530.01ZM157.66 477.56C77.9395 485.12 96.4495 610.12 176.67 590.57C244.2 574.11 227.37 470.96 157.66 477.56ZM606.7 646.42C609.8 669.77 634.22 688.55 656.88 676.78C660.58 674.86 663.78 670.79 665.87 669.7C667.96 668.61 672.4 674.15 673.83 675.79C689.97 694.28 692.52 732.29 716.33 742.29C745.35 754.47 768.64 732.21 770.89 703.8C772.57 682.57 770.46 659.97 769.81 638.81C768.88 608.49 774.06 573.02 743.15 555.47C726.25 545.87 700.69 546.21 681.52 543.1C637.43 535.95 592.58 526.09 548.84 516.78C516.16 509.82 481.53 491.9 455.34 522.25C445.46 533.71 433.579 558.1 426.329 572.24C411.989 600.2 367.789 679.27 424.609 687C465.039 692.51 477.04 648.38 509.84 637.26C512.4 648.26 524.429 656.76 535.049 659.56C553.129 664.33 566.66 655.74 575.52 640.36L606.68 646.42H606.7ZM247.56 590.38C246.25 590.72 232.67 607.31 229.38 610.29C217.14 621.38 201.05 630.07 184.91 633.82C180.43 634.86 171.99 632.95 174.33 640.27C176.34 644.24 187.97 640.49 191.61 639.52C211.09 634.33 231.33 620.51 244.36 605.27C245.73 603.67 250.72 597.58 251.34 596.22C252.68 593.26 250.71 589.56 247.56 590.38ZM265.52 610.41C264.14 610.88 258.19 620.22 256.37 622.28C236.85 644.27 206.96 659.83 177.53 662.44C168.51 674.37 194.38 667.27 199.85 665.77C224.11 659.12 250.91 642.16 265.81 621.73C267.57 619.31 271.14 615.73 270.9 612.78C270.68 610.04 267.66 609.68 265.51 610.42L265.52 610.41ZM560.849 673.26C541.499 681.09 519.5 673.68 504.5 660.33C491.34 671.93 478.69 684.15 464.17 694.07L447.859 703.25L540.669 724.59L543.93 722.83L560.84 673.26H560.849ZM543.849 781.26L583.849 661.27L577.08 664.49C573.57 677.73 569.42 690.86 564.88 703.78C561.6 713.09 556.91 730.47 549.89 736.79C548.05 738.44 545.569 738.63 544.549 740.52C539.609 749.65 536.609 764.67 540.099 774.52C540.749 776.36 542.209 780.18 543.849 781.25V781.26ZM532.859 738.27L287.299 681.23C264.259 680.69 256.709 716.68 277.359 726.25C279.819 722 284.17 698.58 287.51 697.41C290.47 696.38 305.79 699.73 310.04 700.56C320.58 702.62 333.71 705.49 343.85 708.75C347.8 710.02 352.47 710.88 354.65 714.88L346.85 742.24L530.34 785.26C531.6 785.3 527.11 773.93 526.94 772.66C525.29 760.14 529.229 749.86 532.859 738.25V738.27ZM340.859 720.27L294.82 710.66L281.87 753.25L308.14 746.4L327.85 765.25L340.859 720.26V720.27Z" fill="black"/>
<path d="M589.859 422.26C528.769 410.96 468.299 396.15 407.049 385.58C388.739 382.42 375.599 377.37 359.389 390.29C354.889 393.87 351.689 398.76 348.689 403.59L316.879 494.26C307.399 457.16 285.079 423.91 253.589 402.05C229.329 385.21 201.719 375.48 172.309 372.33C149.219 349.1 125.929 325.92 102.889 302.75C89.8493 289.64 66.5293 270.03 56.3393 256.3C52.0893 250.57 52.7393 243.34 59.6093 240.53C126.839 228.87 195.019 222 262.199 210.12C270.149 208.71 278.389 208.36 284.399 202.32C310.439 156.35 336.369 110.18 362.039 63.9598C368.709 51.9498 375.169 36.4698 382.449 25.3698C387.369 17.8698 393.599 15.6798 401.379 21.2698C425.889 64.1398 450.109 107.36 474.039 150.61C482.269 165.48 489.739 182.74 498.699 196.95C503.039 203.83 507.799 206.69 515.619 209.03L725.129 239.52C732.469 240.79 734.729 248.46 731.919 254.84L590.889 396.81C583.689 404.2 589.299 413.49 589.859 422.28V422.26ZM455.209 357.91C469.169 371.7 483.099 361.81 490.569 347.47C502.489 324.61 502.559 283 490.379 260.24C483.289 246.99 470.689 236.08 456.969 248.86C433.949 270.3 432.889 335.84 455.219 357.9L455.209 357.91ZM313.609 244.5C290.719 248.16 284.719 293.55 285.819 311.81C286.919 330.07 297.769 372.08 323.099 362.01C354.219 349.64 354.859 264.28 325.569 247.06C321.849 244.87 317.939 243.81 313.609 244.5Z" fill="#FFCA3A"/>
<path d="M606.701 646.42L575.541 640.36C566.681 655.74 553.151 664.32 535.071 659.56C524.451 656.76 512.421 648.27 509.861 637.26C477.051 648.39 465.061 692.51 424.631 687C367.811 679.26 412.011 600.2 426.351 572.24C433.601 558.1 445.471 533.71 455.361 522.25C481.551 491.9 516.181 509.82 548.861 516.78C592.601 526.09 637.451 535.95 681.541 543.1C700.721 546.21 726.271 545.87 743.171 555.47C774.081 573.03 768.901 608.49 769.831 638.81C770.481 659.97 772.591 682.58 770.911 703.8C768.661 732.21 745.361 754.48 716.351 742.29C692.531 732.29 689.991 694.29 673.851 675.79C672.421 674.15 667.921 668.65 665.891 669.7C663.861 670.75 660.601 674.85 656.901 676.78C634.241 688.55 609.821 669.77 606.721 646.42H606.701ZM507.931 562.18C506.961 554.32 517.521 539.12 507.331 535.29C505.001 534.41 489.491 531.41 487.721 531.79C481.401 533.14 481.991 550.72 478.901 555.85C472.621 556.02 458.261 548.59 453.811 553.74C452.191 555.62 447.591 574.13 448.011 576.52C449.201 583.24 467.101 581.81 472.431 585.22C472.321 591.64 464.701 605.16 469.781 609.83C472.091 611.95 491.181 616.14 494.181 615.1C497.571 613.92 499.671 595.3 500.851 591.26C501.941 590.29 522.111 597.81 525.381 594.29C526.991 592.65 531.431 571.46 530.371 569.26C528.411 565.22 512.281 564.25 507.921 562.17L507.931 562.18ZM560.571 560.44C557.731 561.29 555.861 566.61 557.341 569.28C558.731 572.03 584.041 577.18 587.201 576.11C590.671 573.62 591.371 567.62 587.151 565.49C584.461 564.13 562.891 559.75 560.571 560.45V560.44ZM714.581 568.49C693.391 572.84 703.871 607.75 724.911 595.81C738.671 588 730.991 565.12 714.581 568.49ZM624.321 573.71C619.131 574.14 616.481 582.17 621.551 585.08C623.311 586.09 642.331 590.48 644.381 590.36C650.381 590 653.041 581.52 647.161 578.48C645.801 577.78 625.761 573.6 624.331 573.72L624.321 573.71ZM681.631 588.46C663.001 591.06 664.701 620.07 684.361 618.31C702.621 616.68 700.161 585.87 681.631 588.46ZM538.601 599.51C512.031 603.68 507.081 643.08 535.061 651.57C578.871 664.86 581.261 592.82 538.601 599.51ZM751.521 604.6C740.141 593.15 719.241 608.93 728.851 623.77C740.831 642.26 766.901 620.08 751.521 604.6ZM635.601 618.5C614.851 622.02 608.661 653.08 624.931 665.69C633.691 672.48 646.711 674.3 656.191 668.09C679.711 652.69 666.151 613.31 635.601 618.49V618.5ZM695.201 627.6C681.041 641.72 702.461 663.5 716.411 648.31C728.961 634.64 708.911 613.94 695.201 627.6Z" fill="#D1C6B8"/>
<path d="M566.859 504.25C568.409 497.15 576.629 481.44 574.659 474.96C574.219 473.53 572.849 472.68 571.569 472.06L438.209 444.35C431.459 443.92 431.099 446.51 428.839 451.75L407.759 518.79C407.919 528.89 425.219 525.64 431.849 529.77C414.899 558.43 397.349 590.04 386.839 621.76C379.369 644.29 373.859 670.08 391.859 689.27L306.859 670.27L399.939 402.35L632.849 449.79L634.469 453.26L614.909 513.88L566.869 504.27L566.859 504.25Z" fill="#FEF7EB"/>
<path d="M532.861 738.27C529.241 749.87 525.291 760.15 526.941 772.68C527.111 773.95 531.601 785.32 530.341 785.28L346.851 742.26L354.651 714.9C352.461 710.9 347.801 710.04 343.851 708.77C333.711 705.51 320.581 702.64 310.041 700.58C305.801 699.75 290.471 696.4 287.511 697.43C284.161 698.6 279.821 722.02 277.361 726.27C256.711 716.7 264.261 680.71 287.301 681.25L532.861 738.29V738.27Z" fill="#FEF7EB"/>
<mask id="mask0_13_83" style="mask-type:luminance" maskUnits="userSpaceOnUse" x="265" y="681" width="268" height="105">
<path d="M532.861 738.27C529.241 749.87 525.291 760.15 526.941 772.68C527.111 773.95 531.601 785.32 530.341 785.28L346.851 742.26L354.651 714.9C352.461 710.9 347.801 710.04 343.851 708.77C333.711 705.51 320.581 702.64 310.041 700.58C305.801 699.75 290.471 696.4 287.511 697.43C284.161 698.6 279.821 722.02 277.361 726.27C256.711 716.7 264.261 680.71 287.301 681.25L532.861 738.29V738.27Z" fill="white"/>
</mask>
<g mask="url(#mask0_13_83)">
<path d="M277.37 726.26C277.37 726.26 263.13 685.07 529.87 747.83L532.87 738.28L303.2 661.27L258.25 681.24L249.4 720.25L277.38 726.27" fill="#F3D5B2"/>
</g>
<path d="M157.66 477.56C227.36 470.95 244.2 574.11 176.67 590.57C96.4496 610.12 77.9396 485.12 157.66 477.56ZM151.2 522.6C137.6 536.2 155.62 560.67 172.36 548.26C191.17 534.31 167.47 506.34 151.2 522.6Z" fill="#FEF8EB"/>
<path d="M392.859 400.27L300.799 668.23C291.739 666.46 283.989 663.46 274.859 667.26L362.659 413.57C368.679 400.66 379.239 397.15 392.849 400.27H392.859Z" fill="#FEF7EB"/>
<path d="M544.119 499C543.549 498.37 543.709 496.48 542.439 495.21C540.599 493.38 508.009 486.81 503.239 486.39C483.479 484.65 464.389 491.44 449.849 504.75C444.689 509.47 441.299 515.45 436.139 520.1L417.869 517.25L438.519 454.19L563.199 479.44L564.689 481.54L557.899 501.85C556.959 502.51 544.899 499.86 544.119 499Z" fill="#FFB135"/>
<path d="M560.849 673.26L543.939 722.83L540.679 724.59L447.869 703.25L464.179 694.07C478.689 684.15 491.349 671.93 504.509 660.33C519.519 673.68 541.509 681.09 560.859 673.26H560.849Z" fill="white"/>
<path d="M340.859 720.27L327.849 765.26L308.139 746.41L281.869 753.26L294.819 710.67L340.859 720.27Z" fill="#FEB237"/>
<path d="M143.671 400.47C146.981 400.38 149.141 403.41 147.391 406.28C146.491 407.77 129.671 410.92 126.091 412C81.5208 425.36 48.9808 461.16 38.3408 506.25C37.3808 510.32 35.9108 526.29 33.1908 527.16C26.2808 529.36 28.6208 520.37 29.0208 516.93C34.6108 469.12 69.2208 424.95 114.331 408.25C121.391 405.64 136.571 400.66 143.661 400.48L143.671 400.47Z" fill="#FEF8EB"/>
<path d="M148.619 434.03C147.749 434.87 132.51 438.14 129.33 439.23C91.9295 452.11 65.4095 487.92 62.3695 527.27C53.0395 533.56 55.2195 523.07 56.1595 517.06C62.1595 478.39 91.4795 443.43 128.869 431.77C132.149 430.75 142.85 427.58 145.55 427.55C149.53 427.5 151.269 431.48 148.619 434.03Z" fill="#FEF8EB"/>
<path d="M543.849 781.26C542.199 780.19 540.749 776.37 540.099 774.53C536.609 764.67 539.609 749.65 544.549 740.53C545.569 738.64 548.059 738.45 549.889 736.8C556.909 730.48 561.599 713.11 564.879 703.79C569.429 690.87 573.569 677.74 577.079 664.5L583.849 661.28L543.849 781.27V781.26Z" fill="#F3D5B2"/>
<path d="M265.52 610.41C267.66 609.68 270.69 610.03 270.91 612.77C271.15 615.72 267.58 619.3 265.82 621.72C250.92 642.14 224.11 659.1 199.86 665.76C194.39 667.26 168.52 674.37 177.54 662.43C206.97 659.82 236.85 644.27 256.38 622.27C258.21 620.21 264.15 610.87 265.53 610.4L265.52 610.41Z" fill="#FEF8EB"/>
<path d="M85.0808 530.01C83.6408 528.65 84.8808 524.07 85.1808 522.08C88.9808 497.12 105.341 474.77 128.191 464.09C131.781 462.41 151.881 453.79 151.891 461.76C151.891 465.48 139.271 467.44 135.881 468.78C115.561 476.81 100.151 494.04 94.1408 515.04C92.9708 519.12 92.1408 536.7 85.0808 530V530.01Z" fill="#FEF8EB"/>
<path d="M247.561 590.38C250.711 589.56 252.681 593.27 251.341 596.22C250.721 597.59 245.741 603.67 244.361 605.27C231.331 620.51 211.091 634.33 191.611 639.52C187.971 640.49 176.341 644.23 174.331 640.27C171.981 632.95 180.431 634.86 184.911 633.82C201.051 630.07 217.141 621.38 229.381 610.29C232.671 607.31 246.251 590.71 247.561 590.38Z" fill="#FEF8EB"/>
<path d="M455.21 357.91C432.88 335.85 433.95 270.31 456.96 248.87C470.68 236.08 483.28 246.99 490.37 260.25C502.55 283 502.48 324.62 490.56 347.48C483.09 361.81 469.16 371.71 455.2 357.92L455.21 357.91ZM472.35 264.68C460.71 265.1 461.71 294.21 472.36 294.19C484.01 294.17 483.42 264.28 472.35 264.68Z" fill="black"/>
<path d="M313.609 244.5C317.939 243.81 321.849 244.87 325.569 247.06C354.869 264.28 354.229 349.64 323.099 362.01C297.769 372.08 286.889 329.55 285.819 311.81C284.749 294.07 290.709 248.16 313.609 244.5ZM319.589 266.44C310.179 268.38 310.339 291.99 318.799 294.83C332.799 299.53 333.519 263.56 319.589 266.44Z" fill="black"/>
<path d="M507.929 562.18C512.289 564.26 528.419 565.23 530.379 569.27C531.449 571.47 527.009 592.66 525.389 594.3C522.119 597.82 501.949 590.3 500.859 591.27C499.679 595.32 497.579 613.94 494.189 615.11C491.189 616.15 472.089 611.96 469.789 609.84C464.709 605.16 472.329 591.65 472.439 585.23C467.119 581.82 449.209 583.25 448.019 576.53C447.599 574.14 452.199 555.63 453.819 553.75C458.269 548.6 472.619 556.03 478.909 555.86C481.989 550.74 481.399 533.15 487.729 531.8C489.499 531.42 505.009 534.42 507.339 535.3C517.529 539.13 506.969 554.33 507.939 562.19L507.929 562.18Z" fill="black"/>
<path d="M538.599 599.51C581.259 592.81 578.869 664.86 535.059 651.57C507.079 643.08 512.029 603.68 538.599 599.51Z" fill="black"/>
<path d="M635.599 618.5C666.149 613.32 679.709 652.7 656.189 668.1C646.709 674.31 633.689 672.49 624.929 665.7C608.649 653.09 614.839 622.03 635.599 618.51V618.5Z" fill="black"/>
<path d="M695.201 627.6C708.911 613.93 728.96 634.63 716.41 648.31C702.46 663.5 681.041 641.72 695.201 627.6Z" fill="black"/>
<path d="M714.581 568.49C730.991 565.13 738.661 588.01 724.911 595.81C703.871 607.75 693.391 572.83 714.581 568.49Z" fill="black"/>
<path d="M751.52 604.6C766.9 620.08 740.83 642.26 728.85 623.77C719.23 608.93 740.14 593.15 751.52 604.6Z" fill="black"/>
<path d="M681.63 588.46C700.16 585.88 702.62 616.68 684.36 618.31C664.7 620.06 663 591.06 681.63 588.46Z" fill="black"/>
<path d="M560.57 560.44C562.89 559.75 584.46 564.12 587.15 565.48C591.37 567.62 590.66 573.61 587.2 576.1C584.04 577.17 558.73 572.03 557.34 569.27C555.86 566.6 557.73 561.28 560.57 560.43V560.44Z" fill="black"/>
<path d="M624.32 573.71C625.76 573.59 645.79 577.77 647.15 578.47C653.04 581.51 650.37 589.99 644.37 590.35C642.32 590.47 623.31 586.09 621.54 585.07C616.47 582.16 619.13 574.13 624.31 573.7L624.32 573.71Z" fill="black"/>
<path d="M151.201 522.6C167.471 506.33 191.161 534.3 172.361 548.26C155.631 560.68 137.601 536.2 151.201 522.6Z" fill="black"/>
<path d="M472.35 264.68C483.43 264.28 484.01 294.18 472.36 294.19C461.71 294.2 460.7 265.09 472.35 264.68Z" fill="white"/>
<path d="M319.591 266.44C333.521 263.57 332.801 299.54 318.801 294.83C310.341 291.99 310.181 268.38 319.591 266.44Z" fill="white"/>
<path d="M417.861 884.48C610.453 884.48 766.581 873.39 766.581 859.71C766.581 846.03 610.453 834.94 417.861 834.94C225.268 834.94 69.1406 846.03 69.1406 859.71C69.1406 873.39 225.268 884.48 417.861 884.48Z" fill="#EDDCC5"/>
</g>
<path d="M1427.5 322.25V114H1606V143.75H1635.75V233H1606V262.75H1487V322.25H1427.5ZM1487 233H1576.25V143.75H1487V233ZM1695.25 322.25V292.5H1665.5V262.75H1695.25V233H1814.25V203.25H1695.25V173.5H1844V203.25H1873.75V322.25H1695.25ZM1725 292.5H1814.25V262.75H1725V292.5ZM1992.75 203.25H2022.5V233H1992.75V322.25H1933.25V173.5H1992.75V203.25ZM2111.75 173.5V203.25H2022.5V173.5H2111.75ZM2230.75 322.25V203.25H2171.25V173.5H2230.75V114H2290.25V173.5H2349.75V203.25H2290.25V322.25H2230.75ZM2409.25 322.25V292.5H2379.5V262.75H2409.25V233H2528.25V203.25H2409.25V173.5H2558V203.25H2587.75V322.25H2409.25ZM2439 292.5H2528.25V262.75H2439V292.5ZM2647.25 352V322.25H2766.25V292.5H2647.25V262.75H2617.5V203.25H2647.25V173.5H2825.75V322.25H2796V352H2647.25ZM2677 262.75H2766.25V203.25H2677V262.75ZM2885.25 322.25V292.5H2855.5V203.25H2885.25V173.5H3034V203.25H3063.75V262.75H2915V292.5H3034V322.25H2885.25ZM2915 233H3004.25V203.25H2915V233ZM2111.75 541.25V422.25H2052.25V392.5H2111.75V333H2171.25V392.5H2230.75V422.25H2171.25V541.25H2111.75ZM2290.25 541.25V511.5H2260.5V481.75H2290.25V452H2409.25V422.25H2290.25V392.5H2439V422.25H2468.75V541.25H2290.25ZM2320 511.5H2409.25V481.75H2320V511.5ZM1100.25 760.25V730.5H1070.5V641.25H1100.25V611.5H1278.75V641.25H1130V730.5H1278.75V760.25H1100.25ZM1338.25 760.25V730.5H1308.5V641.25H1338.25V611.5H1487V641.25H1516.75V730.5H1487V760.25H1338.25ZM1368 730.5H1457.25V641.25H1368V730.5ZM1576.25 760.25V730.5H1635.75V581.75H1606V552H1695.25V730.5H1754.75V760.25H1576.25ZM1814.25 760.25V730.5H1873.75V581.75H1844V552H1933.25V730.5H1992.75V760.25H1814.25ZM2052.25 760.25V730.5H2022.5V641.25H2052.25V611.5H2201V641.25H2230.75V700.75H2082V730.5H2201V760.25H2052.25ZM2082 671H2171.25V641.25H2082V671ZM2290.25 760.25V730.5H2260.5V641.25H2290.25V611.5H2468.75V641.25H2320V730.5H2468.75V760.25H2290.25ZM2587.75 760.25V641.25H2528.25V611.5H2587.75V552H2647.25V611.5H2706.75V641.25H2647.25V760.25H2587.75ZM2825.75 581.75V552H2885.25V581.75H2825.75ZM2766.25 760.25V730.5H2825.75V641.25H2796V611.5H2885.25V730.5H2944.75V760.25H2766.25ZM3004.25 760.25V730.5H2974.5V641.25H3004.25V611.5H3153V641.25H3182.75V730.5H3153V760.25H3004.25ZM3034 730.5H3123.25V641.25H3034V730.5ZM3212.5 760.25V611.5H3391V641.25H3420.75V760.25H3361.25V641.25H3272V760.25H3212.5Z" fill="black"/>
<defs>
<clipPath id="clip0_13_83">
<rect width="787.22" height="884.48" fill="white"/>
</clipPath>
</defs>
</svg>
