<svg width="979" height="1263" viewBox="0 0 979 1263" fill="none" xmlns="http://www.w3.org/2000/svg">
<path d="M8.5 1139V1055H80.5V1067H92.5V1103H80.5V1115H32.5V1139H8.5ZM32.5 1103H68.5V1067H32.5V1103ZM116.5 1139V1127H104.5V1115H116.5V1103H164.5V1091H116.5V1079H176.5V1091H188.5V1139H116.5ZM128.5 1127H164.5V1115H128.5V1127ZM236.5 1091H248.5V1103H236.5V1139H212.5V1079H236.5V1091ZM284.5 1079V1091H248.5V1079H284.5ZM332.5 1139V1091H308.5V1079H332.5V1055H356.5V1079H380.5V1091H356.5V1139H332.5ZM404.5 1139V1127H392.5V1115H404.5V1103H452.5V1091H404.5V1079H464.5V1091H476.5V1139H404.5ZM416.5 1127H452.5V1115H416.5V1127ZM500.5 1151V1139H548.5V1127H500.5V1115H488.5V1091H500.5V1079H572.5V1139H560.5V1151H500.5ZM512.5 1115H548.5V1091H512.5V1115ZM596.5 1139V1127H584.5V1091H596.5V1079H656.5V1091H668.5V1115H608.5V1127H656.5V1139H596.5ZM608.5 1103H644.5V1091H608.5V1103ZM812.5 1139V1091H788.5V1079H812.5V1055H836.5V1079H860.5V1091H836.5V1139H812.5ZM884.5 1139V1127H872.5V1115H884.5V1103H932.5V1091H884.5V1079H944.5V1091H956.5V1139H884.5ZM896.5 1127H932.5V1115H896.5V1127ZM20.5 1246V1234H8.5V1198H20.5V1186H92.5V1198H32.5V1234H92.5V1246H20.5ZM116.5 1246V1234H104.5V1198H116.5V1186H176.5V1198H188.5V1234H176.5V1246H116.5ZM128.5 1234H164.5V1198H128.5V1234ZM212.5 1246V1234H236.5V1174H224.5V1162H260.5V1234H284.5V1246H212.5ZM308.5 1246V1234H332.5V1174H320.5V1162H356.5V1234H380.5V1246H308.5ZM404.5 1246V1234H392.5V1198H404.5V1186H464.5V1198H476.5V1222H416.5V1234H464.5V1246H404.5ZM416.5 1210H452.5V1198H416.5V1210ZM500.5 1246V1234H488.5V1198H500.5V1186H572.5V1198H512.5V1234H572.5V1246H500.5ZM620.5 1246V1198H596.5V1186H620.5V1162H644.5V1186H668.5V1198H644.5V1246H620.5ZM716.5 1174V1162H740.5V1174H716.5ZM692.5 1246V1234H716.5V1198H704.5V1186H740.5V1234H764.5V1246H692.5ZM788.5 1246V1234H776.5V1198H788.5V1186H848.5V1198H860.5V1234H848.5V1246H788.5ZM800.5 1234H836.5V1198H800.5V1234ZM872.5 1246V1186H944.5V1198H956.5V1246H932.5V1198H896.5V1246H872.5Z" fill="black"/>
<path d="M400.428 327C400.428 370.078 402.429 405 377.928 405C347.929 405 353.931 370.078 353.931 327C351.433 259 361.931 249 377.928 249C400.428 249 402.929 265.5 400.428 327Z" fill="black"/>
<path d="M544.431 327C544.431 370.078 546.432 405 521.931 405C491.932 405 497.933 370.078 497.933 327C495.436 259 505.934 249 521.931 249C544.431 249 546.932 265.5 544.431 327Z" fill="black"/>
<path d="M207.422 495.451L44.4225 307.951C38.9405 300.5 29.9406 281.071 52.9404 274.5C69.7404 269.7 218.756 239.118 291.422 220.951C293.422 221.118 300.422 217.351 312.422 200.951C324.422 184.551 397.422 68.1177 432.422 11.951C438.256 5.95098 452.522 -2.44902 462.922 11.951C473.322 26.351 545.589 143.951 580.422 200.951C583.589 205.118 592.122 214.451 600.922 218.451C609.722 222.451 763.589 255.451 839.422 271.451C852.089 274.451 871.422 286.651 847.422 311.451C823.422 336.251 735.422 435.118 694.422 481.451C690.782 488.467 684.9 504.3 690.5 511.5" stroke="black" stroke-width="8"/>
<path d="M254.5 431C392.855 431 505 542.936 505 681C505 819.064 392.855 931 254.5 931C116.145 931 4 819.064 4 681C4 542.936 116.145 431 254.5 431Z" fill="#F5F5F5" stroke="black" stroke-width="8"/>
<path d="M254 594.5C302.338 594.5 341.5 633.464 341.5 681.5C341.5 729.536 302.338 768.5 254 768.5C205.662 768.5 166.5 729.536 166.5 681.5C166.5 633.464 205.662 594.5 254 594.5Z" fill="#F5F5F5" stroke="black" stroke-width="5"/>
<circle cx="254" cy="681" r="12.5" fill="black" stroke="black" stroke-width="5"/>
<path d="M257.211 453.368C227.601 452.926 198.194 458.32 170.669 469.242C143.144 480.165 118.039 496.402 96.7893 517.026C75.5393 537.651 58.5597 562.259 46.8199 589.446C35.0802 616.632 28.8101 645.865 28.3679 675.475L51.193 675.816C51.5905 649.203 57.2258 622.93 67.7771 598.496C78.3285 574.061 93.5892 551.944 112.688 533.407C131.787 514.871 154.35 500.277 179.089 490.46C203.827 480.644 230.257 475.795 256.87 476.193L257.211 453.368Z" fill="black"/>
<path d="M256.368 478.98C204.148 479.147 154.086 499.83 116.977 536.571C79.8677 573.311 58.6847 623.164 57.9957 675.379L78.0991 675.644C78.7186 628.704 97.7617 583.887 131.122 550.858C164.483 517.829 209.488 499.235 256.432 499.085L256.368 478.98Z" fill="black"/>
<path d="M256.268 503.253C234.26 502.729 212.362 506.779 191.835 515.171C171.309 523.562 152.559 536.129 136.666 552.148C120.773 568.167 108.05 587.321 99.2299 608.508C90.4099 629.695 85.667 652.496 85.2742 675.599L106.341 675.954C106.684 655.767 110.829 635.844 118.535 617.331C126.242 598.818 137.359 582.081 151.246 568.085C165.133 554.088 181.516 543.107 199.452 535.775C217.388 528.443 236.522 524.904 255.752 525.362L256.268 503.253Z" fill="black"/>
<path d="M256.496 906.352C286.101 907.064 315.555 901.938 343.179 891.267C370.802 880.595 396.053 864.587 417.49 844.157C438.927 823.727 456.13 799.275 468.117 772.196C480.104 745.118 486.64 715.943 487.352 686.339L464.531 685.79C463.891 712.397 458.017 738.618 447.243 762.956C436.47 787.293 421.008 809.27 401.742 827.632C382.475 845.994 359.78 860.382 334.953 869.973C310.126 879.564 283.653 884.171 257.045 883.531L256.496 906.352Z" fill="black"/>
<path d="M257.572 880.749C309.791 881.058 360.039 860.831 397.481 824.43C434.924 788.03 456.56 738.372 457.724 686.165L437.624 685.716C436.577 732.65 417.127 777.291 383.467 810.015C349.807 842.738 304.634 860.922 257.69 860.645L257.572 880.749Z" fill="black"/>
<path d="M257.893 856.477C279.896 857.202 301.83 853.351 322.432 845.147C343.034 836.943 361.897 824.548 377.936 808.674C393.974 792.801 406.871 773.763 415.883 752.658C424.896 731.552 429.846 708.795 430.45 685.696L409.387 685.15C408.86 705.333 404.534 725.217 396.659 743.659C388.784 762.101 377.515 778.736 363.501 792.605C349.487 806.475 333.005 817.306 315.003 824.475C297.001 831.643 277.836 835.008 258.61 834.375L257.893 856.477Z" fill="black"/>
<rect x="489.354" y="430" width="142.373" height="539.951" rx="71.1864" transform="rotate(19.5129 489.354 430)" fill="#F5F5F5"/>
<path d="M630.795 598.514C627.595 600.114 625.128 604.847 624.295 607.014L661.257 608L703.795 614.014C703.795 614.014 699.795 609.914 695.795 603.514C691.795 597.114 667.795 595.847 656.295 596.014C649.128 596.181 633.995 596.914 630.795 598.514Z" fill="black"/>
<path d="M624.295 607.014C598.695 611.414 580.961 637.847 575.295 650.514L516.795 805.514C508.57 830.762 507.446 864.495 544.5 870.029C551 871 558.814 871.959 567 870.029C568.666 869.853 574.4 868.5 584 864.5C596 859.5 597.5 858.5 601 854.5C603.8 851.3 615 841.167 618.5 835.5L650.615 791.706C651.036 791.132 651.918 791.187 652.302 791.787C672.685 823.578 707.704 812.944 724.431 796.868C724.663 796.645 724.983 796.546 725.3 796.601L776.347 805.436C776.631 805.486 776.885 805.663 777.036 805.909C797.008 838.358 827.979 834.029 841.901 827.451C842.402 827.214 842.994 827.413 843.242 827.909C847.507 836.461 857.192 856.151 865.295 873.514C875.75 895.919 892.155 913.366 899.699 918.45C899.765 918.494 899.833 918.527 899.907 918.556C905.344 920.609 909.034 927.476 943.795 922.014C971.795 917.614 976.461 856.847 975.295 827.014C972.461 793.681 966.095 721.114 963.295 697.514C960.531 674.22 942.926 659.077 934.136 654.201C933.913 654.076 933.75 653.878 933.67 653.635L930.138 642.921C930.05 642.653 929.855 642.434 929.594 642.328C924.677 640.339 910.449 637.51 888.295 630.514C866.675 623.687 857.434 630.107 855.114 634.769C854.902 635.193 854.458 635.467 853.988 635.401L776.295 624.514L703.795 614.014M624.295 607.014C625.128 604.847 627.595 600.114 630.795 598.514C633.995 596.914 649.128 596.181 656.295 596.014C667.795 595.847 691.795 597.114 695.795 603.514C699.795 609.914 703.795 614.014 703.795 614.014M624.295 607.014L661.257 608L703.795 614.014" stroke="black" stroke-width="7"/>
<path d="M854.5 635.498L932.5 653.498" stroke="black" stroke-width="7"/>
<path d="M643.5 639C671.943 639 695 661.61 695 689.5C695 717.39 671.943 740 643.5 740C615.057 740 592 717.39 592 689.5C592 661.61 615.057 639 643.5 639Z" fill="#E6E6E6"/>
<path d="M643.5 639C671.943 639 695 661.61 695 689.5C695 717.39 671.943 740 643.5 740C615.057 740 592 717.39 592 689.5C592 661.61 615.057 639 643.5 639Z" stroke="black"/>
<rect x="636.784" y="648.49" width="28.5744" height="80.9299" rx="4" transform="rotate(9.0803 636.784 648.49)" fill="black"/>
<rect x="686.43" y="681.797" width="28.5744" height="80.9299" rx="4" transform="rotate(99.0981 686.43 681.797)" fill="black"/>
<path d="M882.5 677.997C913.152 677.997 938 702.398 938 732.497C938 762.597 913.152 786.997 882.5 786.997C851.848 786.997 827 762.597 827 732.497C827 702.398 851.848 677.997 882.5 677.997Z" fill="#E6E6E6"/>
<path d="M882.5 677.997C913.152 677.997 938 702.398 938 732.497C938 762.597 913.152 786.997 882.5 786.997C851.848 786.997 827 762.597 827 732.497C827 702.398 851.848 677.997 882.5 677.997Z" stroke="black"/>
<ellipse cx="877" cy="765.497" rx="18" ry="18.5" fill="black"/>
<ellipse cx="888" cy="699.497" rx="18" ry="18.5" fill="#0B0B0B"/>
<ellipse cx="916" cy="737.497" rx="18" ry="18.5" fill="black"/>
<ellipse cx="850" cy="724.497" rx="18" ry="18.5" fill="black"/>
<rect x="721.14" y="698" width="30.0181" height="13.837" rx="4" transform="rotate(8.89514 721.14 698)" fill="black"/>
<path d="M807.483 715.301C810.923 717.109 810.023 722.266 806.174 722.803L788.808 725.224C786.122 725.598 783.849 723.247 784.316 720.574L786.161 709.996C786.628 707.323 789.562 705.88 791.963 707.142L807.483 715.301Z" fill="black"/>
<ellipse cx="689.5" cy="776" rx="32.5" ry="33" fill="#D9D9D9"/>
<path d="M716 776C716 790.359 704.136 802 689.5 802C674.864 802 663 790.359 663 776C663 761.641 674.864 750 689.5 750C704.136 750 716 761.641 716 776Z" fill="#727272"/>
<ellipse cx="816.5" cy="794.998" rx="32.5" ry="33" fill="#D9D9D9"/>
<path d="M843 794.998C843 809.357 831.136 820.998 816.5 820.998C801.864 820.998 790 809.357 790 794.998C790 780.638 801.864 768.998 816.5 768.998C831.136 768.998 843 780.638 843 794.998Z" fill="#727272"/>
<path d="M880.641 635.935C881.9 635.7 885.059 635.222 886.655 635.42C887.364 635.46 888.16 635.538 888.91 635.657C889.269 635.698 889.583 635.698 889.906 635.698" stroke="black" stroke-width="6" stroke-linecap="round"/>
<path d="M874.226 634.51C875.174 634.51 876.279 634.667 878.572 634.787C880.185 634.871 881.111 635.222 882.101 635.656C882.379 635.777 882.693 635.854 882.659 635.895C881.608 637.126 878.825 635.146 875.428 634.393C872.701 633.789 870.278 633.797 868.533 633.6C867.827 633.52 866.648 633.56 866.316 633.56C866.099 633.56 867.648 633.716 869.499 634.071C872.806 634.706 876.272 634.983 878.604 635.339C881.647 635.804 884.194 636.33 885.467 636.489C887.451 636.737 889.426 637.912 891.046 638.388C893.922 639.234 896.31 639.499 898.566 639.696C902.086 640.004 903.988 639.974 905.619 640.171C907.553 640.405 909.776 640.687 911.399 641.081C912.691 641.395 914.132 641.637 915.084 641.873C916.516 642.229 918.409 642.744 919.831 642.981C923.209 643.546 924.737 644.088 926.012 644.447C926.251 644.488 926.486 644.488 926.725 644.566C926.963 644.644 927.199 644.801 927.679 645.2" stroke="black" stroke-width="10" stroke-linecap="round"/>
<path d="M437.223 912.327L425.878 957M397.723 899.327L383.048 945.5M383.048 945.5L377.223 963.827L405.223 950.327L421.223 975.327L425.878 957M383.048 945.5L360.723 938.827C345.057 934.66 317.423 916.027 332.223 874.827C347.023 833.627 431.39 594.66 471.723 480.327C474.902 472.66 485.652 458.427 503.223 462.827L658 503L795.702 539C800.702 540.5 810.702 546 806.702 560.5L789 627M425.878 957L676.223 1016.83C675.423 1018.43 682.723 1016.83 682.723 1009.83L680.723 938.827H687.723C703.723 944.427 710.39 935.493 711.723 930.327L746.5 800M747.5 620.5L756.5 588C686.5 569 546.5 531 543 530L509.223 634.327L576.5 653" stroke="black" stroke-width="7"/>
<path d="M667 1003C665 1003 671.009 975 667.009 969.5C663.809 965.1 675.676 946 682.009 937L384.509 864.5C382.009 863.667 375.309 862 368.509 862C360.009 862 355.383 865.794 352 868.5C349.5 870.5 343.509 879 343.009 899.5C342.609 915.9 355.176 924 361.509 926L386.5 932.5" stroke="black" stroke-width="7"/>
<path d="M429.5 942L669.5 1003.5" stroke="black" stroke-width="7"/>
<line x1="651.635" y1="951.455" x2="371.636" y2="881.455" stroke="black" stroke-width="3"/>
<line x1="651.622" y1="966.452" x2="366.622" y2="892.452" stroke="black" stroke-width="3"/>
<path d="M646.631 979.454L430.5 924.5" stroke="black" stroke-width="3"/>
<line x1="392.614" y1="915.449" x2="362.613" y2="907.449" stroke="black" stroke-width="3"/>
<line x1="383.58" y1="861.518" x2="514.58" y2="475.518" stroke="black" stroke-width="3"/>
<path d="M391 296.5C391 309.479 389.479 320 378.5 320C372.149 320 367 309.479 367 296.5C367 283.521 372.149 273 378.5 273C384.851 273 391 273 391 296.5Z" fill="white"/>
<path d="M534 296.5C534 309.479 532.479 320 521.5 320C515.149 320 510 309.479 510 296.5C510 283.521 515.149 273 521.5 273C527.851 273 534 273 534 296.5Z" fill="white"/>
</svg>
