<?xml version="1.0" encoding="UTF-8"?>
<svg id="Calque_1" data-name="Calque 1" xmlns="http://www.w3.org/2000/svg" xmlns:xlink="http://www.w3.org/1999/xlink" viewBox="0 0 787.22 803.08">
  <defs>
    <style>
      .cls-1 {
        fill: #ffca3a;
      }

      .cls-2 {
        fill: #fef7eb;
      }

      .cls-3 {
        fill: #fff;
      }

      .cls-4 {
        fill: #ffb135;
      }

      .cls-5 {
        fill: #d1c6b8;
      }

      .cls-6 {
        fill: #f3d5b2;
      }

      .cls-7 {
        fill: #fef8eb;
      }

      .cls-8 {
        clip-path: url(#clippath);
      }

      .cls-9 {
        fill: #feb237;
      }
    </style>
    <clipPath id="clippath">
      <path class="cls-2" d="M532.86,738.27c-3.62,11.6-7.57,21.88-5.92,34.41.17,1.27,4.66,12.64,3.4,12.6l-183.49-43.02,7.8-27.36c-2.19-4-6.85-4.86-10.8-6.13-10.14-3.26-23.27-6.13-33.81-8.19-4.24-.83-19.57-4.18-22.53-3.15-3.35,1.17-7.69,24.59-10.15,28.84-20.65-9.57-13.1-45.56,9.94-45.02l245.56,57.04Z"/>
    </clipPath>
  </defs>
  <path d="M516.14,189.99l215.95,32.55c20.87,5.47,26.85,28.86,13.75,45.2l-139.57,140.97,2.73,17.42c16.8,4.88,47.01,1.64,43.6,27.38-.6,4.52-7.98,22.6-7.61,24.15,19.43,9.78,2.78,28.56.87,43.6l50.56,8.59c5.34-5.54,7.98-7.03,15.93-6.57,15.51.89,41.94,6.69,49.02,21.98,3.76,8.12,3.49,6.05,8.47,12.53,18.57,24.2,16.48,62.28,17.07,91.93.85,43.16,4.16,117.49-60.41,111.41-39.64-3.73-47.62-40.79-62.13-70.85-22.31,12.26-45.82,4.05-62.01-14.01-1.01-1.12-4.05-7.45-5.48-6.01l-36.53,112.98c-6.55,15.24-18.72,23.1-35.52,18.55l-182.95-43.54c-2.77,6.86-3.38,24.03-13.42,23-5.67-.58-17.64-17.43-23.31-20.85-22.66,4.78-47.32,20.72-32.27-18.13-10.78-2.56-19.96-11.59-23.48-22.04-6.25-18.6,1.89-34.91,8.46-51.97-85.16,60.7-202.64,28.49-244.16-67.33-44.09-101.74,23.11-217.69,133.17-227.68l-105.83-106.66c-11.41-14.44-6.49-36.03,10.84-42.81,72.42-13.41,146-21.71,218.75-33.74L367.04,14.94c11.3-18.89,39.2-20.44,51.04-1.4l98.05,176.45ZM589.86,422.26c-.56-8.79-6.17-18.08,1.03-25.47l141.03-141.97c2.81-6.38.55-14.05-6.79-15.32l-209.51-30.49c-7.82-2.34-12.58-5.2-16.92-12.08-8.96-14.21-16.43-31.47-24.66-46.34-23.93-43.25-48.15-86.47-72.66-129.34-7.77-5.6-14.01-3.4-18.93,4.1-7.28,11.1-13.75,26.58-20.41,38.59-25.67,46.23-51.6,92.39-77.64,138.36-6.01,6.03-14.25,6.39-22.2,7.8-67.18,11.88-135.35,18.75-202.59,30.41-6.87,2.81-7.52,10.04-3.27,15.77,10.18,13.73,33.51,33.34,46.55,46.45,23.04,23.17,46.33,46.35,69.42,69.58,29.4,3.15,57.01,12.88,81.28,29.72,31.49,21.86,53.81,55.11,63.29,92.21l31.81-90.67c3-4.83,6.2-9.72,10.7-13.3,16.22-12.92,29.36-7.87,47.66-4.71,61.25,10.57,121.72,25.38,182.81,36.68ZM392.86,400.27c-13.61-3.12-24.17.39-30.19,13.3l-87.8,253.69c9.13-3.8,16.88-.8,25.94.97l92.06-267.96ZM143.67,400.47c-7.09.19-22.27,5.16-29.33,7.77-45.11,16.7-79.72,60.87-85.31,108.68-.4,3.44-2.74,12.43,4.17,10.23,2.72-.87,4.19-16.84,5.15-20.91,10.63-45.1,43.17-80.89,87.75-94.25,3.58-1.07,20.39-4.23,21.3-5.72,1.74-2.87-.41-5.9-3.72-5.81ZM566.86,504.25l48.04,9.61,19.56-60.62-1.62-3.47-232.91-47.44-93.08,267.92,85,19c-18-19.19-12.49-44.98-5.02-67.51,10.51-31.72,28.07-63.33,45.01-91.99-6.63-4.12-23.94-.88-24.09-10.98l21.08-67.04c2.26-5.24,2.62-7.83,9.37-7.4l133.36,27.71c1.28.62,2.66,1.47,3.09,2.9,1.97,6.49-6.25,22.19-7.8,29.29ZM148.62,434.03c2.64-2.55.91-6.53-3.07-6.48-2.7.03-13.4,3.2-16.68,4.22-37.4,11.66-66.71,46.62-72.71,85.29-.93,6.01-3.11,16.5,6.21,10.21,3.04-39.35,29.56-75.16,66.96-88.04,3.18-1.1,18.42-4.36,19.29-5.2ZM544.12,499c.78.86,12.84,3.51,13.78,2.85l6.79-20.31-1.49-2.1-124.68-25.25-20.65,63.06,18.27,2.85c5.16-4.65,8.56-10.63,13.71-15.35,14.54-13.31,33.63-20.09,53.39-18.36,4.77.42,37.36,6.98,39.2,8.82,1.27,1.27,1.11,3.15,1.68,3.79ZM85.08,530.01c7.06,6.7,7.9-10.88,9.06-14.96,6.01-21.01,21.42-38.23,41.74-46.26,3.4-1.34,16.02-3.3,16.01-7.02-.01-7.97-20.11.65-23.7,2.33-22.85,10.68-39.21,33.03-43.01,57.99-.3,1.98-1.54,6.56-.1,7.93ZM157.66,477.56c-79.72,7.56-61.21,132.56,19.01,113.01,67.53-16.46,50.7-119.61-19.01-113.01ZM606.7,646.42c3.1,23.35,27.52,42.13,50.18,30.36,3.7-1.92,6.9-5.99,8.99-7.08s6.53,4.45,7.96,6.09c16.14,18.49,18.69,56.5,42.5,66.5,29.02,12.18,52.31-10.08,54.56-38.49,1.68-21.23-.43-43.83-1.08-64.99-.93-30.32,4.25-65.79-26.66-83.34-16.9-9.6-42.46-9.26-61.63-12.37-44.09-7.15-88.94-17.01-132.68-26.32-32.68-6.96-67.31-24.88-93.5,5.47-9.88,11.46-21.76,35.85-29.01,49.99-14.34,27.96-58.54,107.03-1.72,114.76,40.43,5.51,52.43-38.62,85.23-49.74,2.56,11,14.59,19.5,25.21,22.3,18.08,4.77,31.61-3.82,40.47-19.2l31.16,6.06ZM247.56,590.38c-1.31.34-14.89,16.93-18.18,19.91-12.24,11.09-28.33,19.78-44.47,23.53-4.48,1.04-12.92-.87-10.58,6.45,2.01,3.97,13.64.22,17.28-.75,19.48-5.19,39.72-19.01,52.75-34.25,1.37-1.6,6.36-7.69,6.98-9.05,1.34-2.96-.63-6.66-3.78-5.84ZM265.52,610.41c-1.38.47-7.33,9.81-9.15,11.87-19.52,21.99-49.41,37.55-78.84,40.16-9.02,11.93,16.85,4.83,22.32,3.33,24.26-6.65,51.06-23.61,65.96-44.04,1.76-2.42,5.33-6,5.09-8.95-.22-2.74-3.24-3.1-5.39-2.36ZM560.85,673.26c-19.35,7.83-41.35.42-56.35-12.93-13.16,11.6-25.81,23.82-40.33,33.74l-16.31,9.18,92.81,21.34,3.26-1.76,16.91-49.57ZM543.85,781.26l40-119.99-6.77,3.22c-3.51,13.24-7.66,26.37-12.2,39.29-3.28,9.31-7.97,26.69-14.99,33.01-1.84,1.65-4.32,1.84-5.34,3.73-4.94,9.13-7.94,24.15-4.45,34,.65,1.84,2.11,5.66,3.75,6.73ZM532.86,738.27l-245.56-57.04c-23.04-.54-30.59,35.45-9.94,45.02,2.46-4.25,6.81-27.67,10.15-28.84,2.96-1.03,18.28,2.32,22.53,3.15,10.54,2.06,23.67,4.93,33.81,8.19,3.95,1.27,8.62,2.13,10.8,6.13l-7.8,27.36,183.49,43.02c1.26.04-3.23-11.33-3.4-12.6-1.65-12.52,2.29-22.8,5.92-34.41ZM340.86,720.27l-46.04-9.61-12.95,42.59,26.27-6.85,19.71,18.85,13.01-44.99Z"/>
  <path class="cls-1" d="M589.86,422.26c-61.09-11.3-121.56-26.11-182.81-36.68-18.31-3.16-31.45-8.21-47.66,4.71-4.5,3.58-7.7,8.47-10.7,13.3l-31.81,90.67c-9.48-37.1-31.8-70.35-63.29-92.21-24.26-16.84-51.87-26.57-81.28-29.72-23.09-23.23-46.38-46.41-69.42-69.58-13.04-13.11-36.36-32.72-46.55-46.45-4.25-5.73-3.6-12.96,3.27-15.77,67.23-11.66,135.41-18.53,202.59-30.41,7.95-1.41,16.19-1.76,22.2-7.8,26.04-45.97,51.97-92.14,77.64-138.36,6.67-12.01,13.13-27.49,20.41-38.59,4.92-7.5,11.15-9.69,18.93-4.1,24.51,42.87,48.73,86.09,72.66,129.34,8.23,14.87,15.7,32.13,24.66,46.34,4.34,6.88,9.1,9.74,16.92,12.08l209.51,30.49c7.34,1.27,9.6,8.94,6.79,15.32l-141.03,141.97c-7.2,7.39-1.59,16.68-1.03,25.47ZM455.21,357.91c13.96,13.79,27.89,3.9,35.36-10.44,11.92-22.86,11.99-64.47-.19-87.23-7.09-13.25-19.69-24.16-33.41-11.38-23.02,21.44-24.08,86.98-1.75,109.04ZM313.61,244.5c-22.89,3.66-28.89,49.05-27.79,67.31s11.95,60.27,37.28,50.2c31.12-12.37,31.76-97.73,2.47-114.95-3.72-2.19-7.63-3.25-11.96-2.56Z"/>
  <path class="cls-5" d="M606.7,646.42l-31.16-6.06c-8.86,15.38-22.39,23.96-40.47,19.2-10.62-2.8-22.65-11.29-25.21-22.3-32.81,11.13-44.8,55.25-85.23,49.74-56.82-7.74-12.62-86.8,1.72-114.76,7.25-14.14,19.12-38.53,29.01-49.99,26.19-30.35,60.82-12.43,93.5-5.47,43.74,9.31,88.59,19.17,132.68,26.32,19.18,3.11,44.73,2.77,61.63,12.37,30.91,17.56,25.73,53.02,26.66,83.34.65,21.16,2.76,43.77,1.08,64.99-2.25,28.41-25.55,50.68-54.56,38.49-23.82-10-26.36-48-42.5-66.5-1.43-1.64-5.93-7.14-7.96-6.09s-5.29,5.15-8.99,7.08c-22.66,11.77-47.08-7.01-50.18-30.36ZM507.93,562.18c-.97-7.86,9.59-23.06-.6-26.89-2.33-.88-17.84-3.88-19.61-3.5-6.32,1.35-5.73,18.93-8.82,24.06-6.28.17-20.64-7.26-25.09-2.11-1.62,1.88-6.22,20.39-5.8,22.78,1.19,6.72,19.09,5.29,24.42,8.7-.11,6.42-7.73,19.94-2.65,24.61,2.31,2.12,21.4,6.31,24.4,5.27,3.39-1.18,5.49-19.8,6.67-23.84,1.09-.97,21.26,6.55,24.53,3.03,1.61-1.64,6.05-22.83,4.99-25.03-1.96-4.04-18.09-5.01-22.45-7.09ZM560.57,560.44c-2.84.85-4.71,6.17-3.23,8.84,1.39,2.75,26.7,7.9,29.86,6.83,3.47-2.49,4.17-8.49-.05-10.62-2.69-1.36-24.26-5.74-26.58-5.04ZM714.58,568.49c-21.19,4.35-10.71,39.26,10.33,27.32,13.76-7.81,6.08-30.69-10.33-27.32ZM624.32,573.71c-5.19.43-7.84,8.46-2.77,11.37,1.76,1.01,20.78,5.4,22.83,5.28,6-.36,8.66-8.84,2.78-11.88-1.36-.7-21.4-4.88-22.83-4.76ZM681.63,588.46c-18.63,2.6-16.93,31.61,2.73,29.85,18.26-1.63,15.8-32.44-2.73-29.85ZM538.6,599.51c-26.57,4.17-31.52,43.57-3.54,52.06,43.81,13.29,46.2-58.75,3.54-52.06ZM751.52,604.6c-11.38-11.45-32.28,4.33-22.67,19.17,11.98,18.49,38.05-3.69,22.67-19.17ZM635.6,618.5c-20.75,3.52-26.94,34.58-10.67,47.19,8.76,6.79,21.78,8.61,31.26,2.4,23.52-15.4,9.96-54.78-20.59-49.6ZM695.2,627.6c-14.16,14.12,7.26,35.9,21.21,20.71,12.55-13.67-7.5-34.37-21.21-20.71Z"/>
  <path class="cls-2" d="M566.86,504.25c1.55-7.1,9.77-22.81,7.8-29.29-.44-1.43-1.81-2.28-3.09-2.9l-133.36-27.71c-6.75-.43-7.11,2.16-9.37,7.4l-21.08,67.04c.16,10.1,17.46,6.85,24.09,10.98-16.95,28.66-34.5,60.27-45.01,91.99-7.47,22.53-12.98,48.32,5.02,67.51l-85-19,93.08-267.92,232.91,47.44,1.62,3.47-19.56,60.62-48.04-9.61Z"/>
  <g>
    <path class="cls-2" d="M532.86,738.27c-3.62,11.6-7.57,21.88-5.92,34.41.17,1.27,4.66,12.64,3.4,12.6l-183.49-43.02,7.8-27.36c-2.19-4-6.85-4.86-10.8-6.13-10.14-3.26-23.27-6.13-33.81-8.19-4.24-.83-19.57-4.18-22.53-3.15-3.35,1.17-7.69,24.59-10.15,28.84-20.65-9.57-13.1-45.56,9.94-45.02l245.56,57.04Z"/>
    <g class="cls-8">
      <path class="cls-6" d="M277.37,726.26s-14.24-41.19,252.5,21.57l3-9.55-229.67-77.01-44.95,19.97-8.85,39.01,27.98,6.02"/>
    </g>
  </g>
  <path class="cls-7" d="M157.66,477.56c69.7-6.61,86.54,96.55,19.01,113.01-80.22,19.55-98.73-105.45-19.01-113.01ZM151.2,522.6c-13.6,13.6,4.42,38.07,21.16,25.66,18.81-13.95-4.89-41.92-21.16-25.66Z"/>
  <path class="cls-2" d="M392.86,400.27l-92.06,267.96c-9.06-1.77-16.81-4.77-25.94-.97l87.8-253.69c6.02-12.91,16.58-16.42,30.19-13.3Z"/>
  <path class="cls-4" d="M544.12,499c-.57-.63-.41-2.52-1.68-3.79-1.84-1.83-34.43-8.4-39.2-8.82-19.76-1.74-38.85,5.05-53.39,18.36-5.16,4.72-8.55,10.7-13.71,15.35l-18.27-2.85,20.65-63.06,124.68,25.25,1.49,2.1-6.79,20.31c-.94.66-13-1.99-13.78-2.85Z"/>
  <path class="cls-3" d="M560.85,673.26l-16.91,49.57-3.26,1.76-92.81-21.34,16.31-9.18c14.51-9.92,27.17-22.14,40.33-33.74,15.01,13.35,37,20.76,56.35,12.93Z"/>
  <polygon class="cls-9" points="340.86 720.27 327.85 765.26 308.14 746.41 281.87 753.26 294.82 710.67 340.86 720.27"/>
  <path class="cls-7" d="M143.67,400.47c3.31-.09,5.47,2.94,3.72,5.81-.9,1.49-17.72,4.64-21.3,5.72-44.57,13.36-77.11,49.16-87.75,94.25-.96,4.07-2.43,20.04-5.15,20.91-6.91,2.2-4.57-6.79-4.17-10.23,5.59-47.81,40.2-91.98,85.31-108.68,7.06-2.61,22.24-7.59,29.33-7.77Z"/>
  <path class="cls-7" d="M148.62,434.03c-.87.84-16.11,4.11-19.29,5.2-37.4,12.88-63.92,48.69-66.96,88.04-9.33,6.29-7.15-4.2-6.21-10.21,6-38.67,35.32-73.63,72.71-85.29,3.28-1.02,13.98-4.19,16.68-4.22,3.98-.05,5.72,3.93,3.07,6.48Z"/>
  <path class="cls-6" d="M543.85,781.26c-1.65-1.07-3.1-4.89-3.75-6.73-3.49-9.86-.49-24.88,4.45-34,1.02-1.89,3.51-2.08,5.34-3.73,7.02-6.32,11.71-23.69,14.99-33.01,4.55-12.92,8.69-26.05,12.2-39.29l6.77-3.22-40,119.99Z"/>
  <path class="cls-7" d="M265.52,610.41c2.14-.73,5.17-.38,5.39,2.36.24,2.95-3.33,6.53-5.09,8.95-14.9,20.42-41.71,37.38-65.96,44.04-5.47,1.5-31.34,8.61-22.32-3.33,29.43-2.61,59.31-18.16,78.84-40.16,1.83-2.06,7.77-11.4,9.15-11.87Z"/>
  <path class="cls-7" d="M85.08,530.01c-1.44-1.36-.2-5.94.1-7.93,3.8-24.96,20.16-47.31,43.01-57.99,3.59-1.68,23.69-10.3,23.7-2.33,0,3.72-12.62,5.68-16.01,7.02-20.32,8.03-35.73,25.26-41.74,46.26-1.17,4.08-2,21.66-9.06,14.96Z"/>
  <path class="cls-7" d="M247.56,590.38c3.15-.82,5.12,2.89,3.78,5.84-.62,1.37-5.6,7.45-6.98,9.05-13.03,15.24-33.27,29.06-52.75,34.25-3.64.97-15.27,4.71-17.28.75-2.35-7.32,6.1-5.41,10.58-6.45,16.14-3.75,32.23-12.44,44.47-23.53,3.29-2.98,16.87-19.58,18.18-19.91Z"/>
  <path d="M455.21,357.91c-22.33-22.06-21.26-87.6,1.75-109.04,13.72-12.79,26.32-1.88,33.41,11.38,12.18,22.75,12.11,64.37.19,87.23-7.47,14.33-21.4,24.23-35.36,10.44ZM472.35,264.68c-11.64.42-10.64,29.53.01,29.51,11.65-.02,11.06-29.91-.01-29.51Z"/>
  <path d="M313.61,244.5c4.33-.69,8.24.37,11.96,2.56,29.3,17.22,28.66,102.58-2.47,114.95-25.33,10.07-36.21-32.46-37.28-50.2s4.89-63.65,27.79-67.31ZM319.59,266.44c-9.41,1.94-9.25,25.55-.79,28.39,14,4.7,14.72-31.27.79-28.39Z"/>
  <path d="M507.93,562.18c4.36,2.08,20.49,3.05,22.45,7.09,1.07,2.2-3.37,23.39-4.99,25.03-3.27,3.52-23.44-4-24.53-3.03-1.18,4.05-3.28,22.67-6.67,23.84-3,1.04-22.1-3.15-24.4-5.27-5.08-4.68,2.54-18.19,2.65-24.61-5.32-3.41-23.23-1.98-24.42-8.7-.42-2.39,4.18-20.9,5.8-22.78,4.45-5.15,18.8,2.28,25.09,2.11,3.08-5.12,2.49-22.71,8.82-24.06,1.77-.38,17.28,2.62,19.61,3.5,10.19,3.83-.37,19.03.6,26.89Z"/>
  <path d="M538.6,599.51c42.66-6.7,40.27,65.35-3.54,52.06-27.98-8.49-23.03-47.89,3.54-52.06Z"/>
  <path d="M635.6,618.5c30.55-5.18,44.11,34.2,20.59,49.6-9.48,6.21-22.5,4.39-31.26-2.4-16.28-12.61-10.09-43.67,10.67-47.19Z"/>
  <path d="M695.2,627.6c13.71-13.67,33.76,7.03,21.21,20.71-13.95,15.19-35.37-6.59-21.21-20.71Z"/>
  <path d="M714.58,568.49c16.41-3.36,24.08,19.52,10.33,27.32-21.04,11.94-31.52-22.98-10.33-27.32Z"/>
  <path d="M751.52,604.6c15.38,15.48-10.69,37.66-22.67,19.17-9.62-14.84,11.29-30.62,22.67-19.17Z"/>
  <path d="M681.63,588.46c18.53-2.58,20.99,28.22,2.73,29.85-19.66,1.75-21.36-27.25-2.73-29.85Z"/>
  <path d="M560.57,560.44c2.32-.69,23.89,3.68,26.58,5.04,4.22,2.14,3.51,8.13.05,10.62-3.16,1.07-28.47-4.07-29.86-6.83-1.48-2.67.39-7.99,3.23-8.84Z"/>
  <path d="M624.32,573.71c1.44-.12,21.47,4.06,22.83,4.76,5.89,3.04,3.22,11.52-2.78,11.88-2.05.12-21.06-4.26-22.83-5.28-5.07-2.91-2.41-10.94,2.77-11.37Z"/>
  <path d="M151.2,522.6c16.27-16.27,39.96,11.7,21.16,25.66-16.73,12.42-34.76-12.06-21.16-25.66Z"/>
  <path class="cls-3" d="M472.35,264.68c11.08-.4,11.66,29.5.01,29.51-10.65.01-11.66-29.1-.01-29.51Z"/>
  <path class="cls-3" d="M319.59,266.44c13.93-2.87,13.21,33.1-.79,28.39-8.46-2.84-8.62-26.45.79-28.39Z"/>
</svg>