<svg width="890" height="186" viewBox="0 0 890 186" fill="none" xmlns="http://www.w3.org/2000/svg">
<path d="M0.5 78.75V0H68V11.25H79.25V45H68V56.25H23V78.75H0.5ZM23 45H56.75V11.25H23V45ZM101.75 78.75V67.5H90.5V56.25H101.75V45H146.75V33.75H101.75V22.5H158V33.75H169.25V78.75H101.75ZM113 67.5H146.75V56.25H113V67.5ZM214.25 33.75H225.5V45H214.25V78.75H191.75V22.5H214.25V33.75ZM259.25 22.5V33.75H225.5V22.5H259.25ZM304.25 78.75V33.75H281.75V22.5H304.25V0H326.75V22.5H349.25V33.75H326.75V78.75H304.25ZM371.75 78.75V67.5H360.5V56.25H371.75V45H416.75V33.75H371.75V22.5H428V33.75H439.25V78.75H371.75ZM383 67.5H416.75V56.25H383V67.5ZM461.75 90V78.75H506.75V67.5H461.75V56.25H450.5V33.75H461.75V22.5H529.25V78.75H518V90H461.75ZM473 56.25H506.75V33.75H473V56.25ZM551.75 78.75V67.5H540.5V33.75H551.75V22.5H608V33.75H619.25V56.25H563V67.5H608V78.75H551.75ZM563 45H596.75V33.75H563V45ZM754.25 78.75V33.75H731.75V22.5H754.25V0H776.75V22.5H799.25V33.75H776.75V78.75H754.25ZM821.75 78.75V67.5H810.5V56.25H821.75V45H866.75V33.75H821.75V22.5H878V33.75H889.25V78.75H821.75ZM833 67.5H866.75V56.25H833V67.5ZM11.75 185.75V174.5H0.5V140.75H11.75V129.5H79.25V140.75H23V174.5H79.25V185.75H11.75ZM101.75 185.75V174.5H90.5V140.75H101.75V129.5H158V140.75H169.25V174.5H158V185.75H101.75ZM113 174.5H146.75V140.75H113V174.5ZM191.75 185.75V174.5H214.25V118.25H203V107H236.75V174.5H259.25V185.75H191.75ZM281.75 185.75V174.5H304.25V118.25H293V107H326.75V174.5H349.25V185.75H281.75ZM371.75 185.75V174.5H360.5V140.75H371.75V129.5H428V140.75H439.25V163.25H383V174.5H428V185.75H371.75ZM383 152H416.75V140.75H383V152ZM461.75 185.75V174.5H450.5V140.75H461.75V129.5H529.25V140.75H473V174.5H529.25V185.75H461.75ZM574.25 185.75V140.75H551.75V129.5H574.25V107H596.75V129.5H619.25V140.75H596.75V185.75H574.25ZM664.25 118.25V107H686.75V118.25H664.25ZM641.75 185.75V174.5H664.25V140.75H653V129.5H686.75V174.5H709.25V185.75H641.75ZM731.75 185.75V174.5H720.5V140.75H731.75V129.5H788V140.75H799.25V174.5H788V185.75H731.75ZM743 174.5H776.75V140.75H743V174.5ZM810.5 185.75V129.5H878V140.75H889.25V185.75H866.75V140.75H833V185.75H810.5Z" fill="black"/>
</svg>
